<svg xmlns="http://www.w3.org/2000/svg" viewBox="0 0 180.58 160.38"><defs><style>.cls-1{fill:#ea535d;}</style></defs><g id="Capa_2" data-name="Capa 2"><g id="Capa_1-2" data-name="Capa 1"><path class="cls-1" d="M0,37.41,59.45,72.7l.79-1c-3.34-2.7-6.78-5.29-10-8.11-11.4-10-23.09-19.66-34-30.18C7.38,24.8,4.65,13.13,2.51.3A23.71,23.71,0,0,1,5.82,2.6C25.61,23.9,47.91,42.46,70.37,60.79c8.08,6.59,11.48,14,8.9,24.45-3,12,2.3,21.26,11,29,8.68-4.91,14.89-17.58,12.29-27.64-3-11.69.88-19.61,9.82-26.92,22.69-18.58,45-37.61,64.8-59.37.17-.19.61-.15,1.32-.3-2,13.36-5.34,26.09-15.53,35.46-12.26,11.27-25.08,21.91-37.68,32.81-1.36,1.19-2.82,2.26-4.24,3.38l.72,1.14,57.72-34.53,1.1.65c-.55,2.26-1,4.57-1.68,6.78A40.06,40.06,0,0,1,157,70.37c-11.17,5.18-22.52,10-33.79,14.92l-5.85,2.52.51,1.6L177.18,72.1c-3.13,15.77-11.84,22.83-27.26,24.4-10.89,1.11-21.71,2.89-32.6,4.94,14.7,3.21,29.72,3.12,44.84,3.44-2.6,8.27-9.48,14.07-17.16,13.43-10.92-.9-21.76-2.83-32.63-4.31-1.27-.17-2.56-.24-3.84-.36l-.36,1.32,43.47,14.52c-2.17,5.16-6.35,7.8-11.56,6-10.4-3.52-20.61-7.6-30.9-11.44-1.35-.5-2.71-1-4.07-1.44l-.79,1.5,35.83,20c-3.72,3.67-7.77,4.62-12,2.39-5.72-3-11.23-6.48-16.72-9.93-8.73-5.48-11.51-4.53-14.62,5.4-1.91,6.12-3.65,12.29-6.5,18.42l-5.18-15.44c-.69-2.05-1.27-4.15-2.1-6.14-2.57-6.13-5.06-7-10.74-3.61-6,3.59-11.79,7.54-17.89,10.94-4.44,2.47-8.87,2-13-2l35.82-19.93-.64-1.51c-2.27.81-4.56,1.57-6.81,2.42-8.71,3.32-17.33,6.85-26.11,9.93-6.89,2.43-10.29,1-14.68-5.38l43.67-14.37-.39-1.63c-5.07.79-10.13,1.68-15.22,2.33-7.25.92-14.5,2.11-21.79,2.37S21,112.58,19,105.34l45.34-2.65,0-1.83C55.9,99.73,47.44,98.62,39,97.47c-5.11-.7-10.28-1.13-15.3-2.26C11.5,92.45,6.53,83.12,3.13,72L63,89.33l.64-1.57c-2-1-4.08-1.92-6.14-2.84C45.07,79.34,32.37,74.26,20.23,68.07,8.47,62.07,2.83,51.3,0,37.41Z"/></g></g></svg>